<svg width="53" height="52" viewBox="0 0 53 52" fill="none" xmlns="http://www.w3.org/2000/svg">
<path d="M26.5594 51.9999C26.2482 51.9999 25.9518 51.9999 25.6406 51.9999C24.8849 51.9258 24.3069 51.4664 23.7438 51.0219C23.3437 50.7107 22.9436 50.3995 22.5435 50.0883C22.2619 49.866 22.0544 49.866 21.8173 50.1476C21.4172 50.6366 20.9134 50.9626 20.2762 51.0663C19.1203 51.2442 18.1422 50.933 17.4309 49.9549C17.2234 49.6585 17.0308 49.5696 16.6751 49.6882C16.3639 49.8067 16.0231 49.8512 15.6823 49.7919C15.5192 49.7326 15.3414 49.703 15.1636 49.7178C14.7338 49.6437 14.3782 49.4362 14.067 49.1547C13.6965 48.7398 13.3112 48.3396 13.1778 47.7617C13.1334 47.5542 12.9704 47.5246 12.7925 47.5246C10.8809 47.3912 10.0807 46.6799 9.81392 44.8275C9.76946 44.5015 9.54718 44.4867 9.32489 44.4274C8.06528 44.1014 7.29469 43.2419 7.1465 41.9971C7.05758 41.2413 7.33914 40.5745 7.75408 39.9521C8.12455 39.389 8.12455 39.389 7.60589 38.9444C7.23541 38.6332 6.8353 38.3368 6.55373 37.9367C6.42036 37.7589 6.25735 37.6996 6.02025 37.7737C5.16074 38.0256 4.40497 37.8626 3.67884 37.3291C3.17499 36.9586 2.65633 36.6178 2.13766 36.2918C1.81164 36.0991 1.51526 35.8917 1.21888 35.6842C-0.100013 34.7802 -0.366756 33.4465 0.507567 32.1276C0.566843 32.0387 0.6113 31.9498 0.685396 31.8905C2.27103 29.4306 3.94558 27.0447 5.57568 24.6292C6.47964 23.2807 7.3836 21.9321 8.3172 20.6133C8.68767 20.0798 9.13225 19.6204 9.7991 19.4574C10.0214 19.3981 10.0955 19.2647 10.1103 19.0573C10.1251 18.8646 10.1251 18.6868 10.1251 18.4941C10.1251 15.234 10.1399 11.9738 10.1251 8.69876C10.1103 6.92048 10.214 5.15702 10.1844 3.37874C10.1844 3.05272 10.1696 2.74152 10.1399 2.4155C10.3622 1.11143 11.2217 0 12.9704 0C23.9365 0.014819 34.9025 0 45.8686 0.014819C48.1804 0.014819 49.766 1.42263 50.1365 3.71957C50.1958 4.10487 50.2254 4.49016 50.2254 4.87546C50.2254 6.29808 50.2254 7.72071 50.2254 9.12852C50.2254 9.5879 50.0921 9.95838 49.6327 10.1362C47.558 10.1066 45.4833 10.2251 43.4087 10.1955C42.7566 10.1807 42.727 10.2251 42.727 10.8772C42.727 13.5298 42.727 16.1824 42.727 18.835C42.727 19.2499 42.8011 19.487 43.2753 19.5611C43.8829 19.6648 44.3126 20.0798 44.6387 20.6133C45.7353 22.4508 46.8022 24.318 47.884 26.1704C48.9065 27.919 49.8994 29.6825 50.9516 31.4163C51.0998 31.6682 51.1442 31.9646 51.3369 32.1721C51.7073 32.6759 52.0037 33.2094 52.0185 33.8466C52.0185 34.1134 52.0185 34.3801 52.0185 34.6469C52.0482 35.373 51.6777 35.8472 51.0701 36.1732C50.5959 36.4251 50.1513 36.7363 49.6771 36.9734C49.1288 37.2402 48.6398 37.5958 48.1063 37.8922C47.4395 38.2627 46.7726 38.4702 46.0168 38.1886C45.7797 38.0997 45.6019 38.1738 45.4241 38.3368C44.1644 39.552 42.7418 40.5004 41.0673 41.0339C40.6672 41.1672 40.7709 41.3895 40.8746 41.6563C41.334 42.99 40.9932 44.1607 39.941 45.0054C39.3631 45.4648 38.711 45.6129 37.9997 45.5685C37.7033 45.5537 37.57 45.6426 37.5107 45.9241C37.0809 47.8506 34.947 48.6953 33.4799 47.8951C33.2132 47.7469 33.1391 47.8654 33.0502 48.1025C32.4426 49.8956 30.6495 50.355 29.375 49.8956C29.0342 49.7771 28.9453 49.8956 28.8416 50.192C28.5304 51.0367 27.9969 51.6887 27.0485 51.8814C26.8558 51.9851 26.6928 51.8962 26.5594 51.9999Z" fill="#333333"/>
<path d="M49.5882 36.8548C50.0772 36.5584 50.5663 36.2621 51.0405 35.9805C51.5147 35.6989 51.8259 35.3136 51.9296 34.7653C51.9444 34.6912 51.9889 34.6912 52.0185 34.7505C52.0185 40.3669 52.0185 45.9833 52.0333 51.5849C52.0333 51.9258 51.9592 51.9999 51.6184 51.9999C43.6309 51.985 35.6583 51.985 27.6708 51.985C27.6412 51.9406 27.6412 51.8961 27.6708 51.8369C28.0413 51.5701 28.4859 51.6442 28.9008 51.5998C34.3839 50.9774 39.1704 48.8138 43.2753 45.1387C45.6167 43.0492 47.4987 40.5892 48.951 37.7884C49.1288 37.4772 49.3066 37.1364 49.5882 36.8548Z" fill="#FEFEFE"/>
<path d="M24.8404 52.0001C24.2921 51.7778 23.7142 51.8815 23.1511 51.8222C20.454 51.511 17.8607 50.8145 15.4007 49.6735C15.5192 49.5846 15.6378 49.6142 15.7564 49.6586C16.1861 49.5549 16.6603 49.6142 17.0456 49.3326C17.3568 49.1103 17.3716 49.4364 17.4457 49.5697C17.7717 50.1032 18.157 50.5626 18.7646 50.7849C19.9205 51.185 21.0912 50.859 21.8173 49.8661C22.0544 49.5401 22.1878 49.5549 22.4694 49.7772C22.9288 50.1625 23.4326 50.5181 23.9068 50.8886C24.4551 51.3036 24.9886 51.7481 25.6406 51.9852C25.3887 52.0001 25.1072 52.0001 24.8404 52.0001Z" fill="#E5ECFE"/>
<path d="M27.6857 51.896C27.6857 51.9256 27.6857 51.9701 27.6857 51.9997C27.3152 51.9997 26.9448 51.9997 26.5743 51.9997C26.678 51.8663 26.8262 51.9108 26.9596 51.896C27.1967 51.8812 27.4486 51.6589 27.6857 51.896Z" fill="#EFF2F9"/>
<path d="M41.5859 2.90441C41.3785 3.61572 41.3637 4.32703 41.3637 5.06798C41.3785 9.95826 41.3637 14.8337 41.3785 19.724C41.3785 20.05 41.3044 20.2427 40.9932 20.4057C40.1485 20.8651 39.3335 21.3689 38.4888 21.8431C37.7775 22.2432 37.407 22.836 37.4218 23.6659C37.4366 23.9178 37.3477 24.0067 37.1106 24.066C36.2363 24.2734 35.3768 24.5105 34.5024 24.718C33.717 24.9107 32.9613 24.8366 32.2203 24.555C30.9311 24.0808 29.6566 23.6362 28.3674 23.1768C26.841 22.6285 25.3739 22.7767 23.9957 23.6066C22.8695 24.2883 21.7433 24.9699 20.6318 25.6664C20.3947 25.8146 20.1873 25.8442 19.9353 25.7405C19.1499 25.4145 18.3201 25.2515 17.4902 25.1329C16.8382 25.044 16.2009 24.8514 15.5934 24.5994C15.3711 24.5105 15.3118 24.4068 15.3711 24.1549C15.5637 23.2806 15.2525 22.5692 14.4967 22.0506C14.0225 21.7246 13.5483 21.3985 13.0889 21.0725C12.8963 20.8206 12.8667 20.5242 12.8667 20.213C12.8667 17.3085 12.8222 14.404 12.8815 11.4846C12.9407 8.78756 14.0374 6.53507 16.1268 4.7716C17.8903 3.2897 19.9205 2.62285 22.2026 2.60803C28.3525 2.59321 34.5024 2.60803 40.6672 2.60803C40.8598 2.60803 41.0376 2.59321 41.2303 2.62285C41.3785 2.62285 41.5859 2.65248 41.5859 2.90441Z" fill="#F0F0F0"/>
<path d="M23.5067 47.5395C24.5144 45.9242 23.6697 44.0866 22.2322 43.6865C21.6839 43.5383 21.5358 43.4494 21.7729 42.827C22.173 41.8341 21.8766 40.8857 21.0615 40.1596C20.2613 39.4335 19.3129 39.3149 18.3348 39.7298C18.0236 39.8632 17.9051 39.9077 17.7273 39.5372C16.9567 37.9219 14.8227 37.6255 13.6076 38.9296C13.489 39.0482 13.3853 39.1815 13.2519 39.3297C12.7925 38.4406 12.1108 37.9071 11.1328 37.7737C9.76944 37.833 8.83584 36.9587 7.85779 36.2029C7.69478 36.0844 7.57623 35.9065 7.69478 35.6694C9.57679 32.8983 11.4588 30.1271 13.3408 27.3411C13.7261 26.778 14.0966 26.2297 14.4819 25.6666C14.5708 25.5332 14.6301 25.3406 14.8672 25.4591C15.949 26.0222 17.1345 26.1853 18.32 26.3779C18.5423 26.4075 18.7646 26.4965 18.9869 26.5557C16.8085 28.0821 15.7712 30.4828 14.23 32.4833C13.6372 33.2539 14.067 34.3802 14.9709 34.8247C17.09 35.8769 19.7427 35.3582 21.3135 33.5799C21.9507 32.8538 22.5434 32.098 23.151 31.3423C23.314 31.1348 23.4919 31.0014 23.7586 30.9273C24.4106 30.7495 25.0627 30.5717 25.6999 30.3494C25.9666 30.2605 26.1297 30.3198 26.3223 30.4976C30.5754 34.1579 34.8284 37.8182 39.0815 41.4785C39.8373 42.1305 39.9558 43.0789 39.3779 43.7754C38.8148 44.4719 37.8367 44.546 37.0809 43.9236C34.9914 42.2343 32.902 40.5449 30.8125 38.8555C30.6495 38.7221 30.5013 38.6036 30.3383 38.4702C30.0567 38.2479 29.7751 38.2183 29.538 38.4999C29.2861 38.8111 29.375 39.0926 29.6714 39.3297C30.3383 39.878 31.0051 40.4115 31.672 40.9598C32.9464 41.9971 34.2208 43.0197 35.4953 44.057C36.2955 44.709 36.4437 45.6426 35.8509 46.3688C35.2878 47.0504 34.3394 47.1097 33.554 46.4725C31.4645 44.7831 29.375 43.0938 27.2855 41.4044C27.1225 41.271 26.9743 41.1376 26.7965 41.0339C26.5446 40.8857 26.3075 40.945 26.1148 41.1673C25.9222 41.3896 25.9222 41.6415 26.1148 41.8638C26.2334 41.9971 26.3816 42.1157 26.5298 42.2343C28.0858 43.4939 29.6269 44.7535 31.1829 45.9983C31.6868 46.3984 31.9239 46.9171 31.8053 47.5543C31.5979 48.725 30.2345 49.1992 29.2713 48.4286C28.1599 47.5543 27.0633 46.6503 25.9666 45.7464C25.9222 45.7167 25.8925 45.6871 25.8481 45.6426C25.4332 45.3166 25.0923 45.287 24.8849 45.5982C24.6181 45.9835 24.8256 46.2502 25.1368 46.5021C25.7295 46.9763 26.3223 47.4505 26.9151 47.9396C27.167 48.147 27.4485 48.3545 27.493 48.7398C27.1818 49.3474 26.6039 49.4067 26.0259 49.4067C25.6554 49.4067 25.2998 49.2733 24.9886 49.051C24.5588 48.7398 24.1439 48.4286 23.7438 48.1026C23.5511 47.9544 23.3881 47.7914 23.5067 47.5395Z" fill="#FEDDCE"/>
<path d="M38.874 26.6299C40.0447 28.6304 41.2302 30.6458 42.4009 32.6464C43.1715 33.9505 43.9273 35.2842 44.6979 36.5734C44.8757 36.855 44.8313 37.018 44.609 37.2551C43.2604 38.6481 41.6748 39.6113 39.778 40.0707C39.4371 40.1448 39.1852 40.1152 38.9037 39.8781C34.8877 36.4104 30.8569 32.9576 26.841 29.4751C26.426 29.1195 26.0704 29.0305 25.5665 29.2232C24.7959 29.5048 23.9957 29.727 23.1955 29.9345C22.8843 30.0234 22.6472 30.1716 22.4545 30.4235C21.8766 31.1645 21.2838 31.9054 20.6614 32.6316C19.5055 33.9801 18.0533 34.5136 16.3046 34.1135C16.1861 33.8467 16.3491 33.6541 16.4825 33.4614C17.2234 32.4093 17.9495 31.3571 18.7053 30.3198C18.9869 29.9345 19.3573 29.6381 19.7575 29.3862C21.4468 28.3489 23.1362 27.356 24.8107 26.289C26.2927 25.3406 27.8338 25.148 29.4936 25.7704C30.6643 26.2149 31.8498 26.615 33.0205 27.03C33.9245 27.356 34.8284 27.4153 35.762 27.193C36.5771 26.9855 37.3921 26.7781 38.222 26.5854C38.4443 26.5558 38.6517 26.5113 38.874 26.6299Z" fill="#FEDDCE"/>
<path d="M0.78915 32.0091C0.47795 30.5717 0.285303 29.1342 0.166751 27.6672C-0.099992 24.3032 0.374217 21.0431 1.42637 17.857C2.49334 14.5968 4.16789 11.6626 6.4352 9.08411C7.45772 7.91341 8.55432 6.8168 9.76948 5.85357C10.0955 5.60164 10.2437 5.30526 10.2437 4.87551C10.2437 4.0901 10.1251 3.28988 10.3178 2.51929C10.3178 8.07642 10.3178 13.6336 10.3178 19.2055C10.3178 19.4574 10.303 19.6204 9.99177 19.6501C9.32491 19.7093 8.90998 20.1243 8.55432 20.6578C6.07954 24.3181 3.58995 27.9784 1.10035 31.6387C1.01144 31.7424 0.892883 31.8758 0.78915 32.0091Z" fill="#E5ECFE"/>
<path d="M51.9296 24.5109C51.9296 25.5335 51.9296 26.5412 51.9296 27.5637C51.8851 29.1938 51.648 30.7942 51.2035 32.365C50.0624 30.4237 48.9065 28.4824 47.7803 26.5263C46.6985 24.6591 45.6019 22.8068 44.5349 20.9247C44.1348 20.2134 43.6013 19.7244 42.7418 19.7244C42.4306 19.7244 42.4899 19.5169 42.4899 19.3539C42.4899 18.2425 42.4899 17.1311 42.4899 16.0048C42.4899 14.1821 42.5047 12.3593 42.4899 10.5366C42.4899 10.1661 42.5491 10.0179 42.9789 10.0179C45.1573 10.0476 47.3357 10.0328 49.5141 10.0328C48.9065 10.2106 48.2841 10.0772 47.6617 10.1069C47.3505 10.1217 47.0245 10.1069 46.6096 10.1069C46.9059 10.5366 47.1579 10.9071 47.4098 11.2627C49.5289 14.3006 50.9367 17.6497 51.6036 21.31C51.7666 22.3622 51.9592 23.4292 51.9296 24.5109Z" fill="#E5ECFE"/>
<path d="M41.5859 2.90424C41.4081 2.74123 41.2007 2.8005 41.008 2.8005C34.6803 2.8005 28.3377 2.75605 22.01 2.81532C17.6087 2.84496 14.0077 5.82358 13.2075 10.21C13.1186 10.699 13.0741 11.2029 13.0741 11.7216C13.0889 14.8335 13.0889 17.9307 13.0889 21.0427C12.6147 20.7315 12.1405 20.4055 11.6515 20.1091C11.4589 19.9906 11.444 19.8276 11.444 19.6349C11.444 14.0333 11.444 8.44655 11.444 2.84496C11.444 1.83727 12.1405 1.17041 13.163 1.17041C22.914 1.17041 32.6797 1.17041 42.4306 1.17041C42.5047 1.17041 42.5788 1.18523 42.7418 1.18523C42.2083 1.73353 41.8675 2.29666 41.5859 2.90424Z" fill="#D4D4D4"/>
<path d="M27.6857 51.8964C27.4486 51.8964 27.1966 51.8964 26.9595 51.8964C27.982 51.4222 28.6341 50.6664 28.7526 49.4809C29.6418 49.9847 30.5309 50.0884 31.4349 49.6735C32.3537 49.2438 32.8131 48.4732 32.9761 47.4655C33.6429 47.9397 34.3394 48.1471 35.11 48.0138C36.3103 47.8063 37.1402 46.932 37.3032 45.6872C37.3329 45.4353 37.3625 45.3612 37.6441 45.4056C38.7555 45.5983 39.7039 45.2574 40.3559 44.3238C41.0228 43.3754 41.0376 42.3677 40.4597 41.3749C40.3263 41.1378 40.3856 41.0785 40.6227 41.0192C42.4751 40.4857 44.0607 39.478 45.3944 38.085C45.5574 37.922 45.676 37.8627 45.9131 37.9813C46.5503 38.3073 47.1875 38.2184 47.7951 37.8776C48.3879 37.5367 48.9954 37.1959 49.603 36.8699C49.2474 37.9368 48.6398 38.8704 48.0618 39.8189C46.8022 41.8491 45.2759 43.6718 43.5124 45.2723C41.0969 47.4507 38.3702 49.14 35.3323 50.2959C33.1391 51.1406 30.8421 51.6296 28.5155 51.8964C28.2192 51.9112 27.9524 51.8964 27.6857 51.8964Z" fill="#E5ECFE"/>
<path d="M45.7205 36.0842C44.2089 33.5057 42.7122 30.942 41.2007 28.3635C40.3856 26.9853 39.5854 25.5923 38.7852 24.2142C38.3554 23.4732 38.4591 23.1324 39.2001 22.7026C39.9855 22.2581 40.7857 21.8135 41.5711 21.3541C41.9712 21.2207 42.075 21.5467 42.2083 21.7839C43.0382 23.2361 43.8977 24.6587 44.7276 26.111C45.6464 27.7115 46.58 29.3267 47.5136 30.9272C47.721 31.2828 47.9137 31.6237 47.9878 32.0386C48.0322 32.3054 48.0322 32.5573 47.721 32.6758C47.2172 32.7499 46.7282 32.8537 46.58 33.4316C46.417 34.0688 46.9356 34.3059 47.3357 34.6171C47.395 34.6912 47.4247 34.7653 47.4247 34.8542C47.395 35.4174 46.3132 36.2028 45.7205 36.0842Z" fill="#E46AB8"/>
<path d="M11.3551 21.2804C12.2146 21.8435 13.0741 22.4066 13.9188 22.9846C14.4078 23.3254 14.4374 23.7552 14.067 24.3035C12.1405 27.1487 10.1992 29.994 8.27271 32.8392C7.75405 33.595 7.23538 34.3359 6.71672 35.0769C6.13877 35.0917 5.54601 34.6175 5.35336 33.9803C5.36818 33.921 5.33855 33.9951 5.35336 33.9358C5.70902 32.854 5.70902 32.854 4.7606 32.1576C4.71615 32.1279 4.68651 32.0835 4.67169 32.039C4.50868 31.3573 4.77542 30.7794 5.13108 30.2311C5.7683 29.2382 6.42034 28.2453 7.08719 27.2821C8.36163 25.4594 9.56197 23.5625 10.8364 21.7398C10.9698 21.5323 11.0883 21.3249 11.3551 21.2804Z" fill="#7FD7FE"/>
<path d="M38.8741 26.63C37.6885 26.9412 36.503 27.2969 35.2878 27.534C33.9986 27.7859 32.8427 27.208 31.6572 26.7931C30.9607 26.5411 30.2494 26.304 29.5677 26.0225C27.8339 25.3112 26.2631 25.5927 24.7219 26.6004C23.1362 27.6377 21.5061 28.5862 19.8909 29.5642C19.3277 29.905 18.9276 30.3941 18.5572 30.9276C17.831 31.9945 17.0753 33.0615 16.3195 34.1285C15.1932 33.8321 14.6597 33.6246 15.623 32.365C16.5566 31.1647 17.3865 29.8902 18.2608 28.6454C18.4831 28.3342 18.735 28.0823 19.061 27.8897C20.8393 26.8079 22.6176 25.7409 24.381 24.6443C25.5814 23.8885 26.8262 23.77 28.1599 24.259C29.3454 24.7036 30.5458 25.1037 31.7313 25.5483C32.8131 25.9484 33.8949 26.0225 35.0063 25.7261C35.851 25.5038 36.7105 25.3112 37.5552 25.074C37.8367 25 37.9849 25.0296 38.1183 25.2963C38.3702 25.7557 38.6221 26.1855 38.8741 26.63Z" fill="#FBB396"/>
<path d="M5.45712 33.9652C5.70905 34.5135 6.21289 34.7951 6.70192 35.0766C6.45 35.4767 6.19807 35.8769 5.93133 36.2622C5.62013 36.6919 5.22002 36.766 4.77545 36.4696C3.7233 35.7731 2.67114 35.0618 1.61899 34.3505C1.12996 34.0097 1.08551 33.6096 1.44116 33.0761C2.43404 31.609 3.42691 30.1419 4.43461 28.6748C6.03506 26.3186 7.63552 23.9476 9.2508 21.5913C10.0214 20.4503 10.2733 20.4206 11.3551 21.2801C9.66573 23.7845 7.99118 26.289 6.30181 28.7934C6.00543 29.2379 5.70905 29.6973 5.39785 30.1419C4.98291 30.705 4.80508 31.3422 4.76063 32.0387C4.71617 32.2462 4.5087 32.2907 4.36051 32.3796C3.9604 32.6315 3.79739 33.0168 3.93076 33.4021C4.07895 33.817 4.43461 34.0245 4.92364 33.98C5.10147 33.9504 5.27929 33.817 5.45712 33.9652Z" fill="#8B9DFE"/>
<path d="M47.6617 32.528C47.9285 32.4539 47.8544 32.276 47.8099 32.0834C47.6173 31.2387 47.069 30.5719 46.654 29.8457C45.1129 27.1338 43.542 24.4516 41.986 21.7545C41.8823 21.5767 41.823 21.3692 41.5859 21.3396C41.7489 21.2359 41.8971 21.1321 42.0601 21.0432C42.7863 20.6283 43.1419 20.7172 43.5569 21.4285C45.9279 25.5038 48.299 29.579 50.67 33.6542C51.0998 34.3803 51.0108 34.6915 50.2699 35.1361C49.3956 35.6548 48.5064 36.1438 47.6321 36.6625C46.5503 37.2849 46.2688 37.2108 45.7353 36.0697C46.2984 35.8771 46.7578 35.5214 47.1579 35.0917C47.2764 34.9731 47.3802 34.8397 47.2764 34.6471C47.3505 34.4396 47.5728 34.4396 47.721 34.3655C48.3582 34.0691 48.462 33.4468 47.9729 32.9429C47.8396 32.8392 47.6321 32.7651 47.6617 32.528Z" fill="#BC50B5"/>
<path d="M47.1579 8.8915C45.7501 8.8915 44.3274 8.8915 42.9196 8.90632C42.5936 8.90632 42.4751 8.78777 42.4899 8.46175C42.5047 7.02431 42.4899 5.60168 42.5047 4.16423C42.5047 3.71966 42.6381 3.30473 42.8455 2.90462C43.2308 2.48969 43.6902 2.59342 44.1644 2.69715C45.8242 3.05281 46.8763 4.04568 47.3209 5.67577C47.4246 6.04625 47.3801 6.41673 47.395 6.7872C47.395 7.29105 47.395 7.79489 47.395 8.29874C47.3653 8.50621 47.3357 8.72849 47.1579 8.8915Z" fill="#7F7F7F"/>
<path d="M14.2003 49.0511C13.0593 48.6065 12.0664 47.8952 11.0735 47.1987C9.56198 46.1614 8.21345 44.9462 6.96865 43.5977C5.057 41.5378 3.54546 39.2113 2.37475 36.6624C2.30066 36.4994 2.27102 36.3067 2.22656 36.1289C2.84896 36.529 3.47136 36.944 4.07894 37.3441C4.71616 37.7738 5.39784 37.8479 6.09433 37.5219C6.27216 37.433 6.37589 37.4033 6.52408 37.5812C7.01311 38.1888 7.59105 38.7074 8.22827 39.1668C8.4061 39.3002 8.42092 39.4039 8.28755 39.5669C8.0949 39.804 7.93189 40.0559 7.76888 40.3079C6.70191 41.9676 7.72442 44.0867 9.69536 44.2497C9.99174 44.2794 10.0362 44.3683 10.0214 44.635C9.99174 46.354 11.2217 47.4655 12.9555 47.2876C13.163 47.2728 13.3112 47.2432 13.3408 47.5099C13.4298 48.162 13.8002 48.6213 14.2003 49.0511Z" fill="#E5ECFE"/>
<path d="M47.1579 8.89148C47.1579 8.12089 47.1283 7.33548 47.1727 6.56489C47.2468 4.89034 45.9576 3.23061 44.12 2.90459C43.6754 2.8305 43.2605 2.77122 42.8307 2.91941C43.5865 1.57088 44.9499 0.933663 46.3577 1.25968C47.8248 1.60052 48.8325 2.80086 48.8769 4.34204C48.9214 5.72021 48.8769 7.09837 48.8917 8.49136C48.8917 8.8322 48.7435 8.92111 48.4323 8.90629C48.0026 8.87666 47.5877 8.89148 47.1579 8.89148Z" fill="#6C6C6C"/>
<path d="M20.3651 41.0489C20.8838 41.6269 20.9875 42.2345 20.5726 42.842C19.4019 44.5611 18.2163 46.2652 17.016 47.9546C16.6011 48.5326 15.9787 48.6511 15.3118 48.3695C14.9413 47.8509 15.1488 47.3618 15.4007 46.9025C15.6675 46.369 16.0528 45.9244 16.3936 45.4354C17.1345 44.3536 17.9051 43.2866 18.6461 42.2048C18.9128 41.8344 19.1944 41.4787 19.5352 41.1823C19.7871 40.96 20.0539 40.8711 20.3651 41.0489Z" fill="#FEDDCE"/>
<path d="M16.4084 39.6262C16.9419 40.1597 17.0752 40.7969 16.6751 41.4045C15.6971 42.8568 14.6894 44.2942 13.652 45.702C13.2964 46.2059 12.7629 46.3244 12.1553 46.1762C11.7404 45.5686 11.9627 45.0055 12.3035 44.472C13 43.3754 13.7706 42.3233 14.5263 41.2563C14.8524 40.7821 15.1487 40.2931 15.5933 39.9078C15.8304 39.7151 16.0675 39.5373 16.4084 39.6262Z" fill="#FEDDCE"/>
<path d="M20.3651 41.0489C19.7279 41.0489 19.4019 41.5082 19.0907 41.938C17.9792 43.4792 16.8975 45.0648 15.786 46.606C15.4007 47.1395 15.2525 47.7174 15.297 48.3695C14.4523 47.999 14.1115 47.0802 14.6153 46.3392C15.8008 44.6054 17.0012 42.8716 18.2312 41.1674C18.7647 40.4413 19.6686 40.4265 20.3651 41.0489Z" fill="#FBB396"/>
<path d="M16.4084 39.626C15.4748 39.9816 15.0747 40.8708 14.5264 41.5969C13.904 42.4416 13.3557 43.3159 12.7333 44.1458C12.2739 44.7533 12.0516 45.4054 12.1554 46.1611C11.1477 45.7907 10.792 44.8274 11.3996 43.9383C12.348 42.5453 13.3112 41.1671 14.2893 39.8038C14.8228 39.0925 15.7119 39.0332 16.4084 39.626Z" fill="#FBB396"/>
<path d="M22.4249 45.0941C22.8991 45.6424 22.988 46.2648 22.6027 46.8428C22.0693 47.6578 21.5061 48.458 20.9282 49.2286C20.5133 49.7917 19.9501 49.9548 19.2685 49.7176C18.9573 49.3324 19.0314 48.9026 19.224 48.5321C19.8019 47.4355 20.5429 46.413 21.3579 45.4794C21.6099 45.183 21.9655 44.9459 22.4249 45.0941Z" fill="#FEDDCE"/>
<path d="M23.5067 47.5396C24.2328 48.2805 24.959 49.0363 26.0408 49.2289C26.5742 49.3178 27.0336 48.9918 27.493 48.7547C27.7746 49.4808 27.5819 50.1625 27.004 50.5923C26.4409 51.0072 25.8629 50.9924 25.2405 50.5182C24.4996 49.9551 23.7734 49.3771 23.0177 48.8288C22.7954 48.6658 22.7509 48.5324 22.9288 48.3101C23.1362 48.0582 23.3141 47.7915 23.5067 47.5396Z" fill="#FBB396"/>
<path d="M11.8589 39.2999C12.3924 39.8778 12.4517 40.5002 12.0219 41.1078C11.6811 41.5968 11.3551 42.0711 11.0142 42.5601C10.5697 43.1973 9.91764 43.3455 9.22114 42.975C8.89513 42.5897 9.01368 42.16 9.20633 41.7895C9.60644 41.0041 10.0955 40.2779 10.703 39.6407C10.9994 39.3295 11.3699 39.0628 11.8589 39.2999Z" fill="#FEDDCE"/>
<path d="M22.4249 45.0941C21.6692 45.2868 21.2246 45.8351 20.8245 46.4575C20.5281 46.9169 20.2021 47.3763 19.8613 47.806C19.4315 48.3691 19.1499 48.9767 19.2685 49.7177C18.3053 49.2583 18.0682 48.3988 18.6757 47.5245C19.2092 46.7539 19.7279 45.9981 20.2762 45.2423C20.8097 44.4717 21.7285 44.4125 22.4249 45.0941Z" fill="#FBB396"/>
<path d="M11.859 39.3003C11.2958 39.3151 10.9106 39.6263 10.5994 40.0412C10.2141 40.5599 9.87322 41.0934 9.50275 41.6268C9.22118 42.0418 9.20636 42.516 9.20636 42.9902C8.46541 42.5753 8.19867 41.775 8.62842 41.0637C8.96926 40.4858 9.35456 39.9375 9.76949 39.404C10.3178 38.752 11.1921 38.7223 11.859 39.3003Z" fill="#FBB396"/>
<path d="M7.69482 35.6843C7.94674 36.2326 8.48023 36.4549 8.9248 36.7661C9.59166 37.2403 10.2882 37.6849 11.1328 37.7738C10.4808 37.759 9.8584 37.8775 9.33973 38.3073C9.14709 38.4703 9.01371 38.3814 8.85071 38.2628C8.31722 37.8627 7.85783 37.4033 7.39844 36.9291C7.1317 36.6476 7.07242 36.4105 7.3688 36.1289C7.48735 35.9955 7.57627 35.8325 7.69482 35.6843Z" fill="#FBB396"/>
<path d="M15.7563 49.6585C15.6378 49.6585 15.5192 49.6733 15.4007 49.6733C15.3414 49.6437 15.2673 49.5992 15.208 49.5696C15.4007 49.5696 15.5785 49.5844 15.7563 49.6585Z" fill="#E4EBFC"/>
<path d="M29.2269 18.5239C27.745 20.7467 26.7224 20.9097 24.9738 19.2352C24.1736 20.2873 23.0918 20.6578 21.8025 20.48C20.7355 20.3318 20.0391 19.6798 19.5797 18.7462C19.4463 18.4646 19.3426 18.435 19.061 18.5683C18.2904 18.9388 17.4754 19.2204 16.6455 19.4427C16.2602 19.5464 15.949 19.4723 15.8453 19.0574C15.7415 18.6721 15.9786 18.4794 16.3491 18.3757C17.1197 18.1682 17.8607 17.8867 18.5868 17.5755C18.898 17.4421 19.0017 17.3235 18.898 16.9382C18.2904 14.745 19.224 12.5074 21.1505 11.4256C21.9655 10.9662 22.7509 11.0403 23.4474 11.6182C24.1143 12.1813 24.3366 13.0112 24.0254 13.8707C23.4326 15.4712 22.3064 16.6567 20.8986 17.5458C20.4243 17.857 20.4392 18.0793 20.7059 18.4942C21.3283 19.4871 22.7806 19.7539 23.6697 19.0129C23.9957 18.7462 24.1736 18.3905 24.2032 17.9607C24.218 17.6644 24.381 17.4865 24.6478 17.4124C24.9293 17.3384 25.122 17.4865 25.2702 17.7236C25.5666 18.1979 25.8926 18.6424 26.352 18.9833C26.8558 19.3389 27.2263 19.3093 27.6412 18.8499C28.0265 18.435 28.234 17.9163 28.4563 17.3976C28.7378 16.7308 29.1676 16.6715 29.6121 17.2346C29.8937 17.6199 30.2049 17.9608 30.6198 18.2275C31.0496 18.4942 31.4201 18.435 31.7461 18.0645C32.0128 17.7681 32.1758 17.4273 32.3537 17.0716C32.5908 16.5678 32.9316 16.4937 33.3614 16.8345C34.1764 17.4717 34.5173 17.4569 35.2878 16.7604C35.5546 16.5233 35.8213 16.4492 36.1029 16.7011C36.3993 16.9679 36.3252 17.2643 36.0881 17.5458C35.4064 18.3609 34.458 18.6128 33.4503 18.1979C33.2428 18.1089 33.1243 18.0645 32.9613 18.3016C31.9091 19.7835 30.768 19.8872 29.4047 18.6721C29.3454 18.6424 29.3009 18.598 29.2269 18.5239Z" fill="#333333"/>
<path d="M26.4113 7.80974C23.2696 7.80974 20.128 7.80974 16.9863 7.80974C16.8382 7.80974 16.6751 7.80974 16.527 7.80974C16.1861 7.7801 15.9935 7.60228 15.9935 7.26144C15.9935 6.9206 16.2009 6.74277 16.5418 6.72795C16.6603 6.71314 16.7789 6.71313 16.8974 6.71313C23.2696 6.71313 29.6418 6.71313 35.9992 6.71313C36.1622 6.71313 36.34 6.71313 36.503 6.74277C36.7846 6.80205 36.9328 7.00952 36.9179 7.29108C36.9031 7.55782 36.7549 7.73565 36.4882 7.7801C36.3252 7.80974 36.1474 7.80974 35.9843 7.80974C32.7983 7.80974 29.5973 7.80974 26.4113 7.80974Z" fill="#333333"/>
<path d="M6.1092 16.0491C6.22775 16.953 6.71678 17.4272 7.60592 17.5458C6.82051 17.7236 6.21293 18.0496 6.09438 18.9832C5.96101 18.1089 5.44234 17.6792 4.59766 17.5606C5.50162 17.4272 5.96101 16.8938 6.1092 16.0491Z" fill="#E46BB9"/>
<path d="M44.7276 17.9903C45.8983 17.5902 45.8983 17.5902 46.3132 16.5232C46.8023 17.5457 46.8023 17.5457 47.8544 17.9903C47.0394 18.1533 46.417 18.4793 46.3281 19.4129C46.2243 18.4645 45.6167 18.1385 44.7276 17.9903Z" fill="#7EB4BA"/>
<path d="M47.6617 32.5277C48.3731 32.8982 48.6398 33.3872 48.4175 33.9503C48.2101 34.4838 47.7951 34.6765 47.2616 34.6616C46.58 34.4394 46.2539 34.0096 46.3429 33.4169C46.4466 32.8537 46.906 32.5277 47.6617 32.5277Z" fill="#333333"/>
<path d="M5.45715 33.9655C5.0274 34.247 4.58283 34.3211 4.13826 34.0099C3.7826 33.758 3.61959 33.4023 3.69369 32.9578C3.79742 32.365 4.22717 32.1427 4.76066 32.0242C5.08668 32.1427 5.44233 32.202 5.6498 32.528C5.91654 32.9726 5.87208 33.4172 5.45715 33.9655Z" fill="#333333"/>
<path d="M20.0094 16.7901C19.4611 15.1601 20.1132 13.3521 21.521 12.4926C21.9211 12.2407 22.3064 12.2111 22.6769 12.5371C23.0473 12.8483 23.0918 13.2336 22.8991 13.6782C22.4397 14.834 21.3431 16.0492 20.0094 16.7901Z" fill="#F0F0F0"/>
<rect x="3" y="3" width="12" height="12" rx="6" fill="#F40F0F"/>
<path d="M9.04065 10.1179C8.87065 10.1279 8.81065 10.2479 8.73065 10.3379C8.09065 10.9779 7.44065 11.6079 6.82065 12.2579C6.60065 12.4879 6.47065 12.4579 6.26065 12.2479C5.47065 11.4679 5.46065 11.4779 6.23065 10.7079C6.71065 10.2279 7.19065 9.72793 7.69065 9.25794C7.90065 9.05793 7.90065 8.93794 7.69065 8.73794C7.04065 8.10793 6.42065 7.45794 5.76065 6.82794C5.53065 6.61794 5.51065 6.47794 5.75065 6.23794C6.53065 5.45794 6.52065 5.44794 7.30065 6.22794C7.77065 6.69793 8.26065 7.15794 8.72065 7.65794C8.95065 7.90794 9.09065 7.87793 9.31065 7.64793C9.92065 7.00793 10.5707 6.39793 11.1807 5.75793C11.4107 5.51793 11.5407 5.52793 11.7707 5.75793C12.5407 6.52793 12.5507 6.51794 11.7607 7.30794C11.2907 7.77794 10.8207 8.26793 10.3307 8.72793C10.1107 8.93793 10.0907 9.06793 10.3207 9.27794C10.9707 9.89793 11.6007 10.5579 12.2507 11.1879C12.4707 11.3979 12.4807 11.5179 12.2607 11.7479C11.4707 12.5479 11.4807 12.5579 10.6807 11.7579C10.2007 11.2779 9.71065 10.7879 9.22065 10.3079C9.17065 10.2279 9.10065 10.1779 9.04065 10.1179Z" fill="#FEFEFE"/>
</svg>
