<svg width="54" height="52" viewBox="0 0 54 52" fill="none" xmlns="http://www.w3.org/2000/svg">
<path d="M27.5428 51.9999C27.2316 51.9999 26.9352 51.9999 26.624 51.9999C25.8682 51.9258 25.2903 51.4664 24.7271 51.0219C24.327 50.7107 23.9269 50.3995 23.5268 50.0883C23.2452 49.866 23.0378 49.866 22.8007 50.1476C22.4006 50.6366 21.8967 50.9626 21.2595 51.0663C20.1036 51.2442 19.1256 50.933 18.4142 49.9549C18.2068 49.6585 18.0141 49.5696 17.6585 49.6882C17.3473 49.8067 17.0064 49.8512 16.6656 49.7919C16.5026 49.7326 16.3248 49.703 16.1469 49.7178C15.7172 49.6437 15.3615 49.4362 15.0503 49.1547C14.6798 48.7398 14.2946 48.3396 14.1612 47.7617C14.1167 47.5542 13.9537 47.5246 13.7759 47.5246C11.8642 47.3912 11.064 46.6799 10.7973 44.8275C10.7528 44.5015 10.5305 44.4867 10.3082 44.4274C9.04861 44.1014 8.27802 43.2419 8.12983 41.9971C8.04092 41.2413 8.32248 40.5745 8.73741 39.9521C9.10789 39.389 9.10789 39.389 8.58922 38.9444C8.21875 38.6332 7.81863 38.3368 7.53707 37.9367C7.4037 37.7589 7.24069 37.6996 7.00359 37.7737C6.14408 38.0256 5.38831 37.8626 4.66218 37.3291C4.15833 36.9586 3.63966 36.6178 3.121 36.2918C2.79498 36.0991 2.4986 35.8917 2.20222 35.6842C0.883324 34.7802 0.616582 33.4465 1.4909 32.1276C1.55018 32.0387 1.59464 31.9498 1.66873 31.8905C3.25437 29.4306 4.92892 27.0447 6.55901 24.6292C7.46298 23.2807 8.36694 21.9321 9.30054 20.6133C9.67101 20.0798 10.1156 19.6204 10.7824 19.4574C11.0047 19.3981 11.0788 19.2647 11.0936 19.0573C11.1085 18.8646 11.1085 18.6868 11.1085 18.4941C11.1085 15.234 11.1233 11.9738 11.1085 8.69876C11.0936 6.92048 11.1974 5.15702 11.1677 3.37874C11.1677 3.05272 11.1529 2.74152 11.1233 2.4155C11.3456 1.11143 12.2051 0 13.9537 0C24.9198 0.014819 35.8859 0 46.852 0.014819C49.1637 0.014819 50.7494 1.42263 51.1199 3.71957C51.1791 4.10487 51.2088 4.49016 51.2088 4.87546C51.2088 6.29808 51.2088 7.72071 51.2088 9.12852C51.2088 9.5879 51.0754 9.95838 50.616 10.1362C48.5413 10.1066 46.4667 10.2251 44.392 10.1955C43.74 10.1807 43.7103 10.2251 43.7103 10.8772C43.7103 13.5298 43.7103 16.1824 43.7103 18.835C43.7103 19.2499 43.7844 19.487 44.2586 19.5611C44.8662 19.6648 45.296 20.0798 45.622 20.6133C46.7186 22.4508 47.7856 24.318 48.8674 26.1704C49.8899 27.919 50.8827 29.6825 51.9349 31.4163C52.0831 31.6682 52.1275 31.9646 52.3202 32.1721C52.6907 32.6759 52.9871 33.2094 53.0019 33.8466C53.0019 34.1134 53.0019 34.3801 53.0019 34.6469C53.0315 35.373 52.661 35.8472 52.0535 36.1732C51.5792 36.4251 51.1347 36.7363 50.6605 36.9734C50.1122 37.2402 49.6231 37.5958 49.0896 37.8922C48.4228 38.2627 47.7559 38.4702 47.0002 38.1886C46.7631 38.0997 46.5852 38.1738 46.4074 38.3368C45.1478 39.552 43.7252 40.5004 42.0506 41.0339C41.6505 41.1672 41.7542 41.3895 41.858 41.6563C42.3173 42.99 41.9765 44.1607 40.9244 45.0054C40.3464 45.4648 39.6944 45.6129 38.9831 45.5685C38.6867 45.5537 38.5533 45.6426 38.494 45.9241C38.0643 47.8506 35.9303 48.6953 34.4633 47.8951C34.1965 47.7469 34.1224 47.8654 34.0335 48.1025C33.4259 49.8956 31.6328 50.355 30.3584 49.8956C30.0175 49.7771 29.9286 49.8956 29.8249 50.192C29.5137 51.0367 28.9802 51.6887 28.0318 51.8814C27.8391 51.9851 27.6761 51.8962 27.5428 51.9999Z" fill="#333333"/>
<path d="M50.5715 36.8548C51.0606 36.5584 51.5496 36.2621 52.0238 35.9805C52.498 35.6989 52.8092 35.3136 52.9129 34.7653C52.9278 34.6912 52.9722 34.6912 53.0019 34.7505C53.0019 40.3669 53.0019 45.9833 53.0167 51.5849C53.0167 51.9258 52.9426 51.9999 52.6017 51.9999C44.6143 51.985 36.6416 51.985 28.6542 51.985C28.6245 51.9406 28.6245 51.8961 28.6542 51.8369C29.0247 51.5701 29.4692 51.6442 29.8842 51.5998C35.3672 50.9774 40.1538 48.8138 44.2586 45.1387C46.6 43.0492 48.4821 40.5892 49.9343 37.7884C50.1121 37.4772 50.29 37.1364 50.5715 36.8548Z" fill="#FEFEFE"/>
<path d="M25.8238 52.0001C25.2755 51.7778 24.6975 51.8815 24.1344 51.8222C21.4373 51.511 18.844 50.8145 16.384 49.6735C16.5026 49.5846 16.6211 49.6142 16.7397 49.6586C17.1694 49.5549 17.6437 49.6142 18.0289 49.3326C18.3401 49.1103 18.355 49.4364 18.4291 49.5697C18.7551 50.1032 19.1404 50.5626 19.748 50.7849C20.9038 51.185 22.0745 50.859 22.8007 49.8661C23.0378 49.5401 23.1712 49.5549 23.4527 49.7772C23.9121 50.1625 24.416 50.5181 24.8902 50.8886C25.4385 51.3036 25.9719 51.7481 26.624 51.9852C26.3721 52.0001 26.0905 52.0001 25.8238 52.0001Z" fill="#E5ECFE"/>
<path d="M28.669 51.896C28.669 51.9256 28.669 51.9701 28.669 51.9997C28.2986 51.9997 27.9281 51.9997 27.5576 51.9997C27.6614 51.8663 27.8095 51.9108 27.9429 51.896C28.18 51.8812 28.4319 51.6589 28.669 51.896Z" fill="#EFF2F9"/>
<path d="M42.5693 2.90441C42.3618 3.61572 42.347 4.32703 42.347 5.06798C42.3618 9.95826 42.347 14.8337 42.3618 19.724C42.3618 20.05 42.2877 20.2427 41.9765 20.4057C41.1318 20.8651 40.3168 21.3689 39.4721 21.8431C38.7608 22.2432 38.3903 22.836 38.4051 23.6659C38.4199 23.9178 38.331 24.0067 38.0939 24.066C37.2196 24.2734 36.3601 24.5105 35.4858 24.718C34.7004 24.9107 33.9446 24.8366 33.2036 24.555C31.9144 24.0808 30.64 23.6362 29.3507 23.1768C27.8243 22.6285 26.3573 22.7767 24.9791 23.6066C23.8528 24.2883 22.7266 24.9699 21.6152 25.6664C21.3781 25.8146 21.1706 25.8442 20.9187 25.7405C20.1333 25.4145 19.3034 25.2515 18.4735 25.1329C17.8215 25.044 17.1843 24.8514 16.5767 24.5994C16.3544 24.5105 16.2951 24.4068 16.3544 24.1549C16.5471 23.2806 16.2359 22.5692 15.4801 22.0506C15.0059 21.7246 14.5317 21.3985 14.0723 21.0725C13.8796 20.8206 13.85 20.5242 13.85 20.213C13.85 17.3085 13.8055 14.404 13.8648 11.4846C13.9241 8.78756 15.0207 6.53507 17.1102 4.7716C18.8736 3.2897 20.9039 2.62285 23.186 2.60803C29.3359 2.59321 35.4858 2.60803 41.6505 2.60803C41.8431 2.60803 42.021 2.59321 42.2136 2.62285C42.3618 2.62285 42.5693 2.65248 42.5693 2.90441Z" fill="#F0F0F0"/>
<path d="M24.49 47.5395C25.4977 45.9242 24.653 44.0866 23.2156 43.6865C22.6673 43.5383 22.5191 43.4494 22.7562 42.827C23.1563 41.8341 22.8599 40.8857 22.0449 40.1596C21.2447 39.4335 20.2962 39.3149 19.3182 39.7298C19.007 39.8632 18.8884 39.9077 18.7106 39.5372C17.94 37.9219 15.8061 37.6255 14.5909 38.9296C14.4724 39.0482 14.3686 39.1815 14.2353 39.3297C13.7759 38.4406 13.0942 37.9071 12.1161 37.7737C10.7528 37.833 9.81918 36.9587 8.84112 36.2029C8.67811 36.0844 8.55956 35.9065 8.67812 35.6694C10.5601 32.8983 12.4421 30.1271 14.3242 27.3411C14.7095 26.778 15.0799 26.2297 15.4652 25.6666C15.5541 25.5332 15.6134 25.3406 15.8505 25.4591C16.9323 26.0222 18.1178 26.1853 19.3034 26.3779C19.5256 26.4075 19.7479 26.4965 19.9702 26.5557C17.7918 28.0821 16.7545 30.4828 15.2133 32.4833C14.6205 33.2539 15.0503 34.3802 15.9543 34.8247C18.0734 35.8769 20.726 35.3582 22.2968 33.5799C22.934 32.8538 23.5268 32.098 24.1344 31.3423C24.2974 31.1348 24.4752 31.0014 24.7419 30.9273C25.394 30.7495 26.046 30.5717 26.6832 30.3494C26.95 30.2605 27.113 30.3198 27.3056 30.4976C31.5587 34.1579 35.8118 37.8182 40.0648 41.4785C40.8206 42.1305 40.9392 43.0789 40.3612 43.7754C39.7981 44.4719 38.82 44.546 38.0643 43.9236C35.9748 42.2343 33.8853 40.5449 31.7958 38.8555C31.6328 38.7221 31.4846 38.6036 31.3216 38.4702C31.04 38.2479 30.7585 38.2183 30.5214 38.4999C30.2694 38.8111 30.3584 39.0926 30.6547 39.3297C31.3216 39.878 31.9885 40.4115 32.6553 40.9598C33.9297 41.9971 35.2042 43.0197 36.4786 44.057C37.2789 44.709 37.427 45.6426 36.8343 46.3688C36.2712 47.0504 35.3227 47.1097 34.5373 46.4725C32.4478 44.7831 30.3584 43.0938 28.2689 41.4044C28.1059 41.271 27.9577 41.1376 27.7799 41.0339C27.5279 40.8857 27.2908 40.945 27.0982 41.1673C26.9055 41.3896 26.9055 41.6415 27.0982 41.8638C27.2167 41.9971 27.3649 42.1157 27.5131 42.2343C29.0691 43.4939 30.6103 44.7535 32.1663 45.9983C32.6701 46.3984 32.9072 46.9171 32.7887 47.5543C32.5812 48.725 31.2179 49.1992 30.2546 48.4286C29.1432 47.5543 28.0466 46.6503 26.95 45.7464C26.9055 45.7167 26.8759 45.6871 26.8314 45.6426C26.4165 45.3166 26.0757 45.287 25.8682 45.5982C25.6014 45.9835 25.8089 46.2502 26.1201 46.5021C26.7129 46.9763 27.3056 47.4505 27.8984 47.9396C28.1503 48.147 28.4319 48.3545 28.4763 48.7398C28.1651 49.3474 27.5872 49.4067 27.0093 49.4067C26.6388 49.4067 26.2831 49.2733 25.9719 49.051C25.5422 48.7398 25.1272 48.4286 24.7271 48.1026C24.5345 47.9544 24.3715 47.7914 24.49 47.5395Z" fill="#FEDDCE"/>
<path d="M39.8573 26.6299C41.0281 28.6304 42.2136 30.6458 43.3843 32.6464C44.1549 33.9505 44.9106 35.2842 45.6812 36.5734C45.8591 36.855 45.8146 37.018 45.5923 37.2551C44.2438 38.6481 42.6581 39.6113 40.7613 40.0707C40.4205 40.1448 40.1686 40.1152 39.887 39.8781C35.871 36.4104 31.8403 32.9576 27.8243 29.4751C27.4094 29.1195 27.0537 29.0305 26.5499 29.2232C25.7793 29.5048 24.979 29.727 24.1788 29.9345C23.8676 30.0234 23.6305 30.1716 23.4379 30.4235C22.8599 31.1645 22.2672 31.9054 21.6448 32.6316C20.4889 33.9801 19.0366 34.5136 17.288 34.1135C17.1694 33.8467 17.3324 33.6541 17.4658 33.4614C18.2067 32.4093 18.9329 31.3571 19.6886 30.3198C19.9702 29.9345 20.3407 29.6381 20.7408 29.3862C22.4302 28.3489 24.1195 27.356 25.7941 26.289C27.276 25.3406 28.8172 25.148 30.4769 25.7704C31.6476 26.2149 32.8331 26.615 34.0038 27.03C34.9078 27.356 35.8118 27.4153 36.7454 27.193C37.5604 26.9855 38.3754 26.7781 39.2053 26.5854C39.4276 26.5558 39.6351 26.5113 39.8573 26.6299Z" fill="#FEDDCE"/>
<path d="M1.77249 32.0091C1.46129 30.5717 1.26864 29.1342 1.15009 27.6672C0.883345 24.3032 1.35755 21.0431 2.40971 17.857C3.47668 14.5968 5.15123 11.6626 7.41854 9.08411C8.44105 7.91341 9.53766 6.8168 10.7528 5.85357C11.0788 5.60164 11.227 5.30526 11.227 4.87551C11.227 4.0901 11.1085 3.28988 11.3011 2.51929C11.3011 8.07642 11.3011 13.6336 11.3011 19.2055C11.3011 19.4574 11.2863 19.6204 10.9751 19.6501C10.3083 19.7093 9.89332 20.1243 9.53766 20.6578C7.06288 24.3181 4.57328 27.9784 2.08369 31.6387C1.99477 31.7424 1.87622 31.8758 1.77249 32.0091Z" fill="#E5ECFE"/>
<path d="M52.9129 24.5109C52.9129 25.5335 52.9129 26.5412 52.9129 27.5637C52.8685 29.1938 52.6314 30.7942 52.1868 32.365C51.0457 30.4237 49.8898 28.4824 48.7636 26.5263C47.6818 24.6591 46.5852 22.8068 45.5182 20.9247C45.1181 20.2134 44.5846 19.7244 43.7251 19.7244C43.4139 19.7244 43.4732 19.5169 43.4732 19.3539C43.4732 18.2425 43.4732 17.1311 43.4732 16.0048C43.4732 14.1821 43.488 12.3593 43.4732 10.5366C43.4732 10.1661 43.5325 10.0179 43.9622 10.0179C46.1406 10.0476 48.319 10.0328 50.4974 10.0328C49.8898 10.2106 49.2674 10.0772 48.645 10.1069C48.3338 10.1217 48.0078 10.1069 47.5929 10.1069C47.8893 10.5366 48.1412 10.9071 48.3931 11.2627C50.5122 14.3006 51.9201 17.6497 52.5869 21.31C52.7499 22.3622 52.9426 23.4292 52.9129 24.5109Z" fill="#E5ECFE"/>
<path d="M42.5693 2.90424C42.3915 2.74123 42.184 2.8005 41.9913 2.8005C35.6636 2.8005 29.3211 2.75605 22.9933 2.81532C18.5921 2.84496 14.9911 5.82358 14.1908 10.21C14.1019 10.699 14.0575 11.2029 14.0575 11.7216C14.0723 14.8335 14.0723 17.9307 14.0723 21.0427C13.5981 20.7315 13.1239 20.4055 12.6348 20.1091C12.4422 19.9906 12.4274 19.8276 12.4274 19.6349C12.4274 14.0333 12.4274 8.44655 12.4274 2.84496C12.4274 1.83727 13.1239 1.17041 14.1464 1.17041C23.8973 1.17041 33.663 1.17041 43.414 1.17041C43.4881 1.17041 43.5622 1.18523 43.7252 1.18523C43.1917 1.73353 42.8508 2.29666 42.5693 2.90424Z" fill="#D4D4D4"/>
<path d="M28.669 51.8964C28.4319 51.8964 28.18 51.8964 27.9429 51.8964C28.9654 51.4222 29.6174 50.6664 29.736 49.4809C30.6251 49.9847 31.5143 50.0884 32.4182 49.6735C33.337 49.2438 33.7964 48.4732 33.9594 47.4655C34.6263 47.9397 35.3228 48.1471 36.0933 48.0138C37.2937 47.8063 38.1235 46.932 38.2866 45.6872C38.3162 45.4353 38.3458 45.3612 38.6274 45.4056C39.7388 45.5983 40.6872 45.2574 41.3393 44.3238C42.0061 43.3754 42.021 42.3677 41.443 41.3749C41.3096 41.1378 41.3689 41.0785 41.606 41.0192C43.4584 40.4857 45.044 39.478 46.3778 38.085C46.5408 37.922 46.6593 37.8627 46.8964 37.9813C47.5336 38.3073 48.1709 38.2184 48.7784 37.8776C49.3712 37.5367 49.9788 37.1959 50.5864 36.8699C50.2307 37.9368 49.6231 38.8704 49.0452 39.8189C47.7856 41.8491 46.2592 43.6718 44.4957 45.2723C42.0802 47.4507 39.3535 49.14 36.3156 50.2959C34.1224 51.1406 31.8255 51.6296 29.4989 51.8964C29.2025 51.9112 28.9357 51.8964 28.669 51.8964Z" fill="#E5ECFE"/>
<path d="M46.7038 36.0842C45.1923 33.5057 43.6955 30.942 42.184 28.3635C41.3689 26.9853 40.5687 25.5923 39.7685 24.2142C39.3387 23.4732 39.4425 23.1324 40.1834 22.7026C40.9688 22.2581 41.7691 21.8135 42.5545 21.3541C42.9546 21.2207 43.0583 21.5467 43.1917 21.7839C44.0216 23.2361 44.8811 24.6587 45.7109 26.111C46.6297 27.7115 47.5633 29.3267 48.4969 30.9272C48.7044 31.2828 48.897 31.6237 48.9711 32.0386C49.0156 32.3054 49.0156 32.5573 48.7044 32.6758C48.2005 32.7499 47.7115 32.8537 47.5633 33.4316C47.4003 34.0688 47.919 34.3059 48.3191 34.6171C48.3783 34.6912 48.408 34.7653 48.408 34.8542C48.3783 35.4174 47.2966 36.2028 46.7038 36.0842Z" fill="#E46AB8"/>
<path d="M12.3384 21.2804C13.1979 21.8435 14.0574 22.4066 14.9021 22.9846C15.3911 23.3254 15.4208 23.7552 15.0503 24.3035C13.1238 27.1487 11.1825 29.994 9.25605 32.8392C8.73739 33.595 8.21872 34.3359 7.70005 35.0769C7.12211 35.0917 6.52935 34.6175 6.3367 33.9803C6.35152 33.921 6.32188 33.9951 6.3367 33.9358C6.69236 32.854 6.69236 32.854 5.74394 32.1576C5.69948 32.1279 5.66985 32.0835 5.65503 32.039C5.49202 31.3573 5.75876 30.7794 6.11442 30.2311C6.75164 29.2382 7.40367 28.2453 8.07053 27.2821C9.34497 25.4594 10.5453 23.5625 11.8197 21.7398C11.9531 21.5323 12.0717 21.3249 12.3384 21.2804Z" fill="#7FD7FE"/>
<path d="M39.8574 26.63C38.6719 26.9412 37.4863 27.2969 36.2712 27.534C34.9819 27.7859 33.826 27.208 32.6405 26.7931C31.944 26.5411 31.2327 26.304 30.551 26.0225C28.8172 25.3112 27.2464 25.5927 25.7052 26.6004C24.1196 27.6377 22.4895 28.5862 20.8742 29.5642C20.3111 29.905 19.911 30.3941 19.5405 30.9276C18.8144 31.9945 18.0586 33.0615 17.3028 34.1285C16.1766 33.8321 15.6431 33.6246 16.6063 32.365C17.5399 31.1647 18.3698 29.8902 19.2441 28.6454C19.4664 28.3342 19.7183 28.0823 20.0443 27.8897C21.8226 26.8079 23.6009 25.7409 25.3644 24.6443C26.5647 23.8885 27.8095 23.77 29.1432 24.259C30.3288 24.7036 31.5291 25.1037 32.7146 25.5483C33.7964 25.9484 34.8782 26.0225 35.9896 25.7261C36.8343 25.5038 37.6938 25.3112 38.5385 25.074C38.8201 25 38.9683 25.0296 39.1016 25.2963C39.3535 25.7557 39.6055 26.1855 39.8574 26.63Z" fill="#FBB396"/>
<path d="M6.44046 33.9652C6.69238 34.5135 7.19623 34.7951 7.68526 35.0766C7.43334 35.4767 7.18141 35.8769 6.91467 36.2622C6.60347 36.6919 6.20336 36.766 5.75878 36.4696C4.70663 35.7731 3.65448 35.0618 2.60233 34.3505C2.1133 34.0097 2.06884 33.6096 2.4245 33.0761C3.41738 31.609 4.41025 30.1419 5.41795 28.6748C7.0184 26.3186 8.61886 23.9476 10.2341 21.5913C11.0047 20.4503 11.2566 20.4206 12.3384 21.2801C10.6491 23.7845 8.97451 26.289 7.28514 28.7934C6.98876 29.2379 6.69238 29.6973 6.38118 30.1419C5.96625 30.705 5.78842 31.3422 5.74396 32.0387C5.69951 32.2462 5.49204 32.2907 5.34385 32.3796C4.94374 32.6315 4.78073 33.0168 4.9141 33.4021C5.06229 33.817 5.41795 34.0245 5.90697 33.98C6.0848 33.9504 6.26263 33.817 6.44046 33.9652Z" fill="#8B9DFE"/>
<path d="M48.6451 32.528C48.9118 32.4539 48.8377 32.276 48.7933 32.0834C48.6006 31.2387 48.0523 30.5719 47.6374 29.8457C46.0962 27.1338 44.5254 24.4516 42.9694 21.7545C42.8657 21.5767 42.8064 21.3692 42.5693 21.3396C42.7323 21.2359 42.8805 21.1321 43.0435 21.0432C43.7696 20.6283 44.1253 20.7172 44.5402 21.4285C46.9113 25.5038 49.2823 29.579 51.6533 33.6542C52.0831 34.3803 51.9942 34.6915 51.2532 35.1361C50.3789 35.6548 49.4898 36.1438 48.6154 36.6625C47.5336 37.2849 47.2521 37.2108 46.7186 36.0697C47.2817 35.8771 47.7411 35.5214 48.1412 35.0917C48.2598 34.9731 48.3635 34.8397 48.2598 34.6471C48.3339 34.4396 48.5562 34.4396 48.7044 34.3655C49.3416 34.0691 49.4453 33.4468 48.9563 32.9429C48.8229 32.8392 48.6154 32.7651 48.6451 32.528Z" fill="#BC50B5"/>
<path d="M48.1412 8.8915C46.7334 8.8915 45.3108 8.8915 43.903 8.90632C43.5769 8.90632 43.4584 8.78777 43.4732 8.46175C43.488 7.02431 43.4732 5.60168 43.488 4.16423C43.488 3.71966 43.6214 3.30473 43.8289 2.90462C44.2142 2.48969 44.6735 2.59342 45.1478 2.69715C46.8075 3.05281 47.8596 4.04568 48.3042 5.67577C48.4079 6.04625 48.3635 6.41673 48.3783 6.7872C48.3783 7.29105 48.3783 7.79489 48.3783 8.29874C48.3487 8.50621 48.319 8.72849 48.1412 8.8915Z" fill="#7F7F7F"/>
<path d="M15.1837 49.0511C14.0426 48.6065 13.0497 47.8952 12.0569 47.1987C10.5453 46.1614 9.19679 44.9462 7.95199 43.5977C6.04034 41.5378 4.52879 39.2113 3.35809 36.6624C3.284 36.4994 3.25436 36.3067 3.2099 36.1289C3.8323 36.529 4.4547 36.944 5.06228 37.3441C5.6995 37.7738 6.38117 37.8479 7.07767 37.5219C7.2555 37.433 7.35923 37.4033 7.50742 37.5812C7.99645 38.1888 8.57439 38.7074 9.21161 39.1668C9.38944 39.3002 9.40426 39.4039 9.27089 39.5669C9.07824 39.804 8.91523 40.0559 8.75222 40.3079C7.68525 41.9676 8.70776 44.0867 10.6787 44.2497C10.9751 44.2794 11.0195 44.3683 11.0047 44.635C10.9751 46.354 12.2051 47.4655 13.9389 47.2876C14.1463 47.2728 14.2945 47.2432 14.3242 47.5099C14.4131 48.162 14.7836 48.6213 15.1837 49.0511Z" fill="#E5ECFE"/>
<path d="M48.1412 8.89148C48.1412 8.12089 48.1116 7.33548 48.1561 6.56489C48.2302 4.89034 46.9409 3.23061 45.1033 2.90459C44.6588 2.8305 44.2438 2.77122 43.8141 2.91941C44.5699 1.57088 45.9332 0.933663 47.341 1.25968C48.8081 1.60052 49.8158 2.80086 49.8603 4.34204C49.9047 5.72021 49.8603 7.09837 49.8751 8.49136C49.8751 8.8322 49.7269 8.92111 49.4157 8.90629C48.9859 8.87666 48.571 8.89148 48.1412 8.89148Z" fill="#6C6C6C"/>
<path d="M21.3484 41.0489C21.8671 41.6269 21.9708 42.2345 21.5559 42.842C20.3852 44.5611 19.1997 46.2652 17.9993 47.9546C17.5844 48.5326 16.962 48.6511 16.2951 48.3695C15.9247 47.8509 16.1321 47.3618 16.3841 46.9025C16.6508 46.369 17.0361 45.9244 17.3769 45.4354C18.1179 44.3536 18.8885 43.2866 19.6294 42.2048C19.8962 41.8344 20.1777 41.4787 20.5186 41.1823C20.7705 40.96 21.0372 40.8711 21.3484 41.0489Z" fill="#FEDDCE"/>
<path d="M17.3917 39.6262C17.9252 40.1597 18.0586 40.7969 17.6584 41.4045C16.6804 42.8568 15.6727 44.2942 14.6354 45.702C14.2797 46.2059 13.7462 46.3244 13.1386 46.1762C12.7237 45.5686 12.946 45.0055 13.2868 44.472C13.9833 43.3754 14.7539 42.3233 15.5097 41.2563C15.8357 40.7821 16.1321 40.2931 16.5767 39.9078C16.8138 39.7151 17.0509 39.5373 17.3917 39.6262Z" fill="#FEDDCE"/>
<path d="M21.3484 41.0489C20.7112 41.0489 20.3852 41.5082 20.074 41.938C18.9626 43.4792 17.8808 45.0648 16.7694 46.606C16.3841 47.1395 16.2359 47.7174 16.2803 48.3695C15.4356 47.999 15.0948 47.0802 15.5987 46.3392C16.7842 44.6054 17.9845 42.8716 19.2145 41.1674C19.748 40.4413 20.6519 40.4265 21.3484 41.0489Z" fill="#FBB396"/>
<path d="M17.3918 39.626C16.4582 39.9816 16.058 40.8708 15.5097 41.5969C14.8873 42.4416 14.339 43.3159 13.7166 44.1458C13.2573 44.7533 13.035 45.4054 13.1387 46.1611C12.131 45.7907 11.7753 44.8274 12.3829 43.9383C13.3313 42.5453 14.2946 41.1671 15.2726 39.8038C15.8061 39.0925 16.6953 39.0332 17.3918 39.626Z" fill="#FBB396"/>
<path d="M23.4083 45.0941C23.8825 45.6424 23.9714 46.2648 23.5861 46.8428C23.0526 47.6578 22.4895 48.458 21.9115 49.2286C21.4966 49.7917 20.9335 49.9548 20.2518 49.7176C19.9406 49.3324 20.0147 48.9026 20.2073 48.5321C20.7853 47.4355 21.5262 46.413 22.3413 45.4794C22.5932 45.183 22.9489 44.9459 23.4083 45.0941Z" fill="#FEDDCE"/>
<path d="M24.49 47.5396C25.2162 48.2805 25.9423 49.0363 27.0241 49.2289C27.5576 49.3178 28.017 48.9918 28.4764 48.7547C28.7579 49.4808 28.5653 50.1625 27.9873 50.5923C27.4242 51.0072 26.8463 50.9924 26.2239 50.5182C25.4829 49.9551 24.7568 49.3771 24.001 48.8288C23.7787 48.6658 23.7343 48.5324 23.9121 48.3101C24.1196 48.0582 24.2974 47.7915 24.49 47.5396Z" fill="#FBB396"/>
<path d="M12.8423 39.2999C13.3758 39.8778 13.435 40.5002 13.0053 41.1078C12.6644 41.5968 12.3384 42.0711 11.9976 42.5601C11.553 43.1973 10.901 43.3455 10.2045 42.975C9.87846 42.5897 9.99702 42.16 10.1897 41.7895C10.5898 41.0041 11.0788 40.2779 11.6864 39.6407C11.9828 39.3295 12.3532 39.0628 12.8423 39.2999Z" fill="#FEDDCE"/>
<path d="M23.4083 45.0941C22.6525 45.2868 22.2079 45.8351 21.8078 46.4575C21.5114 46.9169 21.1854 47.3763 20.8446 47.806C20.4148 48.3691 20.1333 48.9767 20.2518 49.7177C19.2886 49.2583 19.0515 48.3988 19.6591 47.5245C20.1926 46.7539 20.7112 45.9981 21.2595 45.2423C21.793 44.4717 22.7118 44.4125 23.4083 45.0941Z" fill="#FBB396"/>
<path d="M12.8423 39.3003C12.2792 39.3151 11.8939 39.6263 11.5827 40.0412C11.1974 40.5599 10.8566 41.0934 10.4861 41.6268C10.2045 42.0418 10.1897 42.516 10.1897 42.9902C9.44875 42.5753 9.18201 41.775 9.61176 41.0637C9.9526 40.4858 10.3379 39.9375 10.7528 39.404C11.3011 38.752 12.1755 38.7223 12.8423 39.3003Z" fill="#FBB396"/>
<path d="M8.67816 35.6843C8.93008 36.2326 9.46357 36.4549 9.90814 36.7661C10.575 37.2403 11.2715 37.6849 12.1162 37.7738C11.4641 37.759 10.8417 37.8775 10.3231 38.3073C10.1304 38.4703 9.99705 38.3814 9.83404 38.2628C9.30056 37.8627 8.84117 37.4033 8.38178 36.9291C8.11503 36.6476 8.05576 36.4105 8.35214 36.1289C8.47069 35.9955 8.55961 35.8325 8.67816 35.6843Z" fill="#FBB396"/>
<path d="M16.7397 49.6585C16.6211 49.6585 16.5025 49.6733 16.384 49.6733C16.3247 49.6437 16.2506 49.5992 16.1913 49.5696C16.384 49.5696 16.5618 49.5844 16.7397 49.6585Z" fill="#E4EBFC"/>
<path d="M30.2102 18.5239C28.7283 20.7467 27.7058 20.9097 25.9571 19.2352C25.1569 20.2873 24.0751 20.6578 22.7859 20.48C21.7189 20.3318 21.0224 19.6798 20.563 18.7462C20.4296 18.4646 20.3259 18.435 20.0443 18.5683C19.2737 18.9388 18.4587 19.2204 17.6288 19.4427C17.2435 19.5464 16.9323 19.4723 16.8286 19.0574C16.7249 18.6721 16.962 18.4794 17.3325 18.3757C18.103 18.1682 18.844 17.8867 19.5701 17.5755C19.8813 17.4421 19.9851 17.3235 19.8813 16.9382C19.2737 14.745 20.2073 12.5074 22.1338 11.4256C22.9489 10.9662 23.7343 11.0403 24.4308 11.6182C25.0976 12.1813 25.3199 13.0112 25.0087 13.8707C24.4159 15.4712 23.2897 16.6567 21.8819 17.5458C21.4077 17.857 21.4225 18.0793 21.6892 18.4942C22.3116 19.4871 23.7639 19.7539 24.6531 19.0129C24.9791 18.7462 25.1569 18.3905 25.1865 17.9607C25.2014 17.6644 25.3644 17.4865 25.6311 17.4124C25.9127 17.3384 26.1053 17.4865 26.2535 17.7236C26.5499 18.1979 26.8759 18.6424 27.3353 18.9833C27.8391 19.3389 28.2096 19.3093 28.6246 18.8499C29.0098 18.435 29.2173 17.9163 29.4396 17.3976C29.7212 16.7308 30.1509 16.6715 30.5955 17.2346C30.877 17.6199 31.1882 17.9608 31.6032 18.2275C32.0329 18.4942 32.4034 18.435 32.7294 18.0645C32.9962 17.7681 33.1592 17.4273 33.337 17.0716C33.5741 16.5678 33.915 16.4937 34.3447 16.8345C35.1597 17.4717 35.5006 17.4569 36.2712 16.7604C36.5379 16.5233 36.8047 16.4492 37.0862 16.7011C37.3826 16.9679 37.3085 17.2643 37.0714 17.5458C36.3897 18.3609 35.4413 18.6128 34.4336 18.1979C34.2262 18.1089 34.1076 18.0645 33.9446 18.3016C32.8924 19.7835 31.7514 19.8872 30.388 18.6721C30.3287 18.6424 30.2843 18.598 30.2102 18.5239Z" fill="#333333"/>
<path d="M27.3946 7.80974C24.253 7.80974 21.1113 7.80974 17.9697 7.80974C17.8215 7.80974 17.6585 7.80974 17.5103 7.80974C17.1695 7.7801 16.9768 7.60228 16.9768 7.26144C16.9768 6.9206 17.1843 6.74277 17.5251 6.72795C17.6437 6.71314 17.7622 6.71313 17.8808 6.71313C24.253 6.71313 30.6251 6.71313 36.9825 6.71313C37.1455 6.71313 37.3233 6.71313 37.4864 6.74277C37.7679 6.80205 37.9161 7.00952 37.9013 7.29108C37.8865 7.55782 37.7383 7.73565 37.4715 7.7801C37.3085 7.80974 37.1307 7.80974 36.9677 7.80974C33.7816 7.80974 30.5807 7.80974 27.3946 7.80974Z" fill="#333333"/>
<path d="M7.09254 16.0491C7.21109 16.953 7.70012 17.4272 8.58926 17.5458C7.80385 17.7236 7.19627 18.0496 7.07772 18.9832C6.94434 18.1089 6.42568 17.6792 5.58099 17.5606C6.48495 17.4272 6.94434 16.8938 7.09254 16.0491Z" fill="#E46BB9"/>
<path d="M45.7109 17.9903C46.8816 17.5902 46.8816 17.5902 47.2966 16.5232C47.7856 17.5457 47.7856 17.5457 48.8378 17.9903C48.0227 18.1533 47.4003 18.4793 47.3114 19.4129C47.2077 18.4645 46.6001 18.1385 45.7109 17.9903Z" fill="#7EB4BA"/>
<path d="M48.6451 32.5277C49.3564 32.8982 49.6231 33.3872 49.4009 33.9503C49.1934 34.4838 48.7785 34.6765 48.245 34.6616C47.5633 34.4394 47.2373 34.0096 47.3262 33.4169C47.4299 32.8537 47.8893 32.5277 48.6451 32.5277Z" fill="#333333"/>
<path d="M6.44049 33.9655C6.01074 34.247 5.56617 34.3211 5.1216 34.0099C4.76594 33.758 4.60293 33.4023 4.67702 32.9578C4.78076 32.365 5.21051 32.1427 5.74399 32.0242C6.07001 32.1427 6.42567 32.202 6.63314 32.528C6.89988 32.9726 6.85542 33.4172 6.44049 33.9655Z" fill="#333333"/>
<path d="M20.9928 16.7901C20.4445 15.1601 21.0965 13.3521 22.5043 12.4926C22.9044 12.2407 23.2897 12.2111 23.6602 12.5371C24.0307 12.8483 24.0751 13.2336 23.8825 13.6782C23.4231 14.834 22.3265 16.0492 20.9928 16.7901Z" fill="#F0F0F0"/>
<rect x="3.98334" y="3" width="12" height="12" rx="6" fill="#24E51A"/>
<path d="M8.7457 10.086C8.80412 10.0145 8.83161 9.97021 8.86941 9.93616C10.1031 8.71377 11.3367 7.49139 12.567 6.269C12.8281 6.01023 13.1305 5.93191 13.4742 6.0613C13.9725 6.25198 14.1409 6.87169 13.8178 7.2939C13.7732 7.35179 13.7216 7.40286 13.6701 7.45394C12.244 8.867 10.8144 10.2835 9.3883 11.6965C8.97937 12.1017 8.51546 12.1017 8.10309 11.6931C7.47766 11.0734 6.8488 10.4537 6.22681 9.83401C6.00345 9.60928 5.93128 9.33688 6.02063 9.03725C6.10997 8.73761 6.3196 8.54353 6.62887 8.47543C6.91753 8.41414 7.17182 8.49245 7.38488 8.70016C7.80412 9.11556 8.22336 9.53097 8.6426 9.94637C8.67353 9.98042 8.69759 10.0213 8.7457 10.086Z" fill="white"/>
</svg>
